# xmcd
#
# Track frame offsets:
#	150
#	13177
#	29030
#	49165
#	65520
#	78675
#	93267
#	105305
#	121352
#	137280
#	151585
#	169717
#	185592
#	199187
#	209352
#
# Disc length: 2977 seconds
#
# Revision: 1
# Processed by: cddbd v1.5.1PL2 Copyright (c) Steve Scherf et al.
# Submitted via: audiograbber 1.83.01
#
DISCID=c70b9f0f
DTITLE=Music Maestro - MM6230
DYEAR=1900
DGENRE=Karaoke
TTITLE0=Brooks, Garth - She's Gonna Make It
TTITLE1=Raye, Collin - Little Red Rodeo
TTITLE2=Cochran, Anita and Steve Wariner - What If I Said
TTITLE3=McCoy, Neal - If You Can't Be Good Be Good At It
TTITLE4=Adkins, Trace - Lonely Won't Leave Me Alone
TTITLE5=Dixie Chicks - I Can Love You Better
TTITLE6=Wright, Cheryl - Just Another Heartache
TTITLE7=Brooks, Garth - Belleau Wood
TTITLE8=Jackson, Alan - House With No Curtains, A
TTITLE9=Strait, George - Round About Way
TTITLE10=McCready, Mindy - You'll Never Know
TTITLE11=Kinleys, The - Just Between You And Me
TTITLE12=Lawrence, Tracy - One Step Ahead Of The Storm
TTITLE13=Evans, Sara - Shame About That
TTITLE14=Yearwood, Trisha - Perfect Love
EXTD=As Listed In KJ Pro
EXTT0=
EXTT1=
EXTT2=
EXTT3=
EXTT4=
EXTT5=
EXTT6=
EXTT7=
EXTT8=
EXTT9=
EXTT10=
EXTT11=
EXTT12=
EXTT13=
EXTT14=
PLAYORDER=
